<?xml version="1.0" standalone="no"?>
<!DOCTYPE svg PUBLIC "-//W3C//DTD SVG 20010904//EN"
 "http://www.w3.org/TR/2001/REC-SVG-20010904/DTD/svg10.dtd">
<svg version="1.0" xmlns="http://www.w3.org/2000/svg"
 width="779.000000pt" height="451.000000pt" viewBox="0 0 779.000000 451.000000"
 preserveAspectRatio="xMidYMid meet">

<g transform="translate(0.000000,451.000000) scale(0.100000,-0.100000)"
stroke="none">
<path d="M1065 4425 c-171 -47 -302 -157 -374 -316 -42 -93 -51 -159 -51 -371
l0 -188 -243 0 c-242 0 -243 0 -295 -26 -31 -16 -63 -41 -77 -62 -23 -33 -25
-47 -25 -139 0 -101 1 -103 32 -138 17 -20 50 -46 72 -58 39 -21 56 -22 294
-25 l252 -3 0 -884 0 -884 -252 -3 c-238 -3 -255 -4 -294 -25 -22 -12 -55 -38
-72 -58 -31 -35 -32 -37 -32 -138 0 -92 2 -106 25 -139 14 -21 46 -46 77 -62
52 -26 53 -26 300 -26 l248 0 0 -208 c0 -230 8 -278 61 -385 47 -92 154 -194
254 -243 79 -38 81 -39 217 -42 120 -3 145 -1 203 18 82 27 170 86 230 152 98
109 135 204 144 368 l6 115 108 3 107 3 0 -84 c0 -236 116 -429 317 -529 l86
-43 157 0 157 0 86 43 c201 100 317 293 317 529 l0 84 108 -3 107 -3 6 -115
c10 -178 52 -275 170 -392 47 -46 91 -78 146 -105 l78 -38 165 0 165 0 78 38
c55 27 99 59 146 105 118 117 160 214 170 392 l6 115 108 3 107 3 0 -84 c0
-236 116 -429 317 -529 l86 -43 157 0 157 0 86 43 c201 100 317 293 317 529
l0 84 108 -3 107 -3 6 -115 c9 -164 46 -259 144 -368 60 -66 148 -125 230
-152 58 -19 83 -21 203 -18 136 3 138 4 217 42 100 49 207 151 254 243 53 107
61 155 61 385 l0 208 249 0 249 0 53 28 c125 65 158 234 66 338 -16 20 -49 45
-71 57 -39 21 -56 22 -293 25 l-253 3 0 885 0 884 110 0 110 0 0 -117 c0 -65
5 -136 11 -158 35 -132 182 -202 305 -146 53 24 109 91 123 146 17 68 14 968
-3 1018 -59 163 -272 205 -381 75 -48 -57 -55 -86 -55 -233 l0 -135 -110 0
-110 0 0 188 c0 216 -9 280 -54 377 -89 192 -264 311 -471 322 -209 11 -391
-82 -505 -259 -56 -86 -81 -171 -87 -300 l-6 -108 -108 0 -109 0 0 96 c0 174
-47 291 -165 410 -107 109 -239 164 -390 164 -151 0 -283 -55 -390 -164 -105
-106 -165 -238 -165 -364 0 -27 -3 -70 -6 -96 l-7 -46 -102 0 -102 0 -6 108
c-6 129 -31 214 -87 300 -107 167 -280 262 -475 262 -195 0 -368 -95 -475
-262 -56 -86 -81 -171 -87 -300 l-6 -108 -108 0 -109 0 0 96 c0 174 -47 291
-165 410 -218 221 -562 221 -780 0 -118 -119 -165 -236 -165 -410 l0 -96 -109
0 -108 0 -6 108 c-9 177 -62 301 -179 412 -129 123 -346 181 -513 135z m915
-1205 l0 -110 -110 0 -110 0 0 110 0 110 110 0 110 0 0 -110z m4010 0 l0 -110
-105 0 -105 0 0 110 0 110 105 0 105 0 0 -110z m-4010 -1005 l0 -445 -110 0
-110 0 0 445 0 445 110 0 110 0 0 -445z m1330 0 l0 -445 -105 0 -105 0 0 445
0 445 105 0 105 0 0 -445z m1350 0 l0 -445 -110 0 -110 0 0 445 0 445 110 0
110 0 0 -445z m1330 0 l0 -445 -105 0 -105 0 0 445 0 445 105 0 105 0 0 -445z
m-4010 -1000 l0 -105 -110 0 -110 0 0 105 0 105 110 0 110 0 0 -105z m4010 0
l0 -105 -105 0 -105 0 0 105 0 105 105 0 105 0 0 -105z"/>
</g>
</svg>
