<?xml version="1.0" encoding="iso-8859-1"?>
<!-- Generator: Adobe Illustrator 19.0.0, SVG Export Plug-In . SVG Version: 6.00 Build 0)  -->
<svg version="1.1" id="Layer_1" xmlns="http://www.w3.org/2000/svg" xmlns:xlink="http://www.w3.org/1999/xlink" x="0px" y="0px"
	 viewBox="0 0 512.4 512.4" style="enable-background:new 0 0 512.4 512.4;" xml:space="preserve">
<g>
	<g>
		<path d="M490.1,345.2h-44.5V167.1h22.3v22.3c-0.4,12.3,9.5,22.3,21.8,22.3s22.3-10,22.3-22.3v-89c0-12.3-10-22.3-22.3-22.3
			s-22.3,10-22.3,22.3v22.3h-22.3V89.2c0-30.7-25-55.7-55.7-55.7s-55.7,25-55.7,55.7v11.2h-22.3V89.2c0-30.7-25-55.7-55.7-55.7
			c-30.7,0-55.7,25-55.7,55.7v11.2h-22.3V89.2c0-30.7-25-55.7-55.7-55.7c-30.7,0-55.7,25-55.7,55.7v33.4h-44
			C10,122.6,0,132.6,0,144.9s10,22.3,22.3,22.3h44.5v178.1H22.3C10,345.2,0,355.2,0,367.5c0,12.3,10,22.3,22.3,22.3h44.5v33.4
			c0,30.7,25,55.7,55.7,55.7s55.7-25,55.7-55.7v-11.1h22.3v11.1c0,30.7,25,55.7,55.7,55.7s55.7-25,55.7-55.7v-11.1h22.3v11.1
			c0,30.7,25,55.7,55.7,55.7s55.7-25,55.7-55.7v-33.4h44.5c12.3,0,22.3-10,22.3-22.3S502.4,345.2,490.1,345.2z M200.3,367.5H178
			v-22.3h22.3V367.5z M200.3,300.7H178v-89h22.3V300.7z M200.3,167.1H178v-22.3h22.3V167.1z M333.9,367.5h-22.3v-22.3h22.3V367.5z
			 M333.9,300.7h-22.3v-89h22.3V300.7z M333.9,167.1h-22.3v-22.3h22.3V167.1z"/>
	</g>
</g>
<g>
</g>
<g>
</g>
<g>
</g>
<g>
</g>
<g>
</g>
<g>
</g>
<g>
</g>
<g>
</g>
<g>
</g>
<g>
</g>
<g>
</g>
<g>
</g>
<g>
</g>
<g>
</g>
<g>
</g>
</svg>
